Coordinates
version=1
nRows=32
nColumns=12
inDegrees=yes

Units are S.I. units (second, meters, Newtons, ...)
Angles are in degrees

endheader
time	SC_y	SC_z	SC_x	AC_y	AC_z	AC_x	GH_y	GH_z	GH_yy	EL_x	PS_y
       0.0              -38.82          13.22          39.75          52.32         -15.55         -12.36          99.98          17.36          61.86          10.51          85.64
   0.02074              -38.82          13.22          39.76          52.33         -15.55         -12.36          99.97          17.37          61.83          10.53          85.63
   0.04147              -38.81          13.22          39.76          52.33         -15.55         -12.36          99.97          17.38          61.79          10.54          85.63
   0.06221              -38.81          13.22          39.77          52.33         -15.55         -12.36          99.97          17.39          61.76          10.55          85.62
   0.08295               -38.8          13.22          39.78          52.33         -15.55         -12.36          99.97           17.4          61.72          10.57          85.62
    0.1037               -38.8          13.22          39.78          52.33         -15.54         -12.36          99.97          17.41          61.67          10.58          85.61
    0.1244               -38.8          13.22          39.79          52.34         -15.54         -12.36          99.97          17.42          61.63           10.6          85.61
    0.1452              -38.79          13.22           39.8          52.34         -15.54         -12.36          99.97          17.43          61.58          10.61           85.6
    0.1659              -38.78          13.22          39.81          52.34         -15.54         -12.36          99.97          17.44          61.52          10.63           85.6
    0.1866              -38.78          13.22          39.82          52.34         -15.54         -12.36          99.97          17.45          61.47          10.65          85.59
    0.2074              -38.77          13.22          39.83          52.35         -15.53         -12.36          99.97          17.47          61.41          10.67          85.58
    0.2281              -38.77          13.21          39.84          52.35         -15.53         -12.36          99.97          17.48          61.34           10.7          85.57
    0.2488              -38.76          13.21          39.85          52.36         -15.53         -12.36          99.97           17.5          61.27          10.72          85.56
    0.2696              -38.75          13.21          39.86          52.36         -15.52         -12.36          99.97          17.52          61.19          10.75          85.55
    0.2903              -38.74          13.21          39.88          52.36         -15.52         -12.36          99.97          17.53          61.11          10.78          85.54
    0.3111              -38.73          13.21          39.89          52.37         -15.52         -12.36          99.97          17.56          61.02          10.81          85.53
    0.3318              -38.72          13.21          39.91          52.37         -15.51         -12.36          99.97          17.58          60.93          10.85          85.52
    0.3525              -38.71          13.21          39.93          52.38         -15.51         -12.36          99.97           17.6          60.82          10.88          85.51
    0.3733               -38.7          13.21          39.94          52.39          -15.5         -12.36          99.96          17.63           60.7          10.92          85.49
     0.394              -38.69          13.21          39.96          52.39          -15.5         -12.36          99.96          17.66          60.58          10.97          85.48
    0.4147              -38.67           13.2          39.99           52.4         -15.49         -12.36          99.96          17.69          60.44          11.02          85.46
    0.4355              -38.66           13.2          40.01          52.41         -15.48         -12.36          99.96          17.73          60.29          11.07          85.44
    0.4562              -38.64           13.2          40.04          52.42         -15.48         -12.36          99.96          17.77          60.12          11.13          85.42
     0.477              -38.62           13.2          40.07          52.43         -15.47         -12.36          99.96          17.81          59.93           11.2           85.4
    0.4977               -38.6          13.19          40.11          52.44         -15.46         -12.36          99.96          17.86          59.72          11.27          85.37
    0.5184              -38.58          13.19          40.14          52.45         -15.45         -12.36          99.95          17.91          59.49          11.35          85.34
    0.5392              -38.55          13.19          40.19          52.46         -15.44         -12.36          99.95          17.97          59.23          11.45          85.31
    0.5599              -38.52          13.18          40.24          52.48         -15.42         -12.36          99.95          18.04          58.94          11.55          85.28
    0.5806              -38.49          13.18          40.29           52.5         -15.41         -12.36          99.95          18.11          58.61          11.67          85.24
    0.6014              -38.45          13.17          40.35          52.52         -15.39         -12.36          99.94           18.2          58.23           11.8          85.19
    0.6221               -38.4          13.17          40.42          52.54         -15.37         -12.36          99.94           18.3           57.8          11.95          85.14
    0.6429              -38.35          13.16           40.5          52.57         -15.35         -12.36          99.94          18.41          57.31          12.12          85.08
